<svg width="50" xmlns="http://www.w3.org/2000/svg" role="img" viewBox="0 0 24 24" fill="none" stroke="#ffffff" strokeWidth="1" strokeLinecap="round" strokeLinejoin="round">
  <title>GitHub</title>
  <path d="M12 2C6.48 2 2 6.48 2 12c0 4.41 2.87 8.14 6.84 9.46.5.09.66-.22.66-.49 0-.24-.01-.87-.01-1.71-2.78.6-3.37-1.34-3.37-1.34-.45-1.14-1.11-1.44-1.11-1.44-.91-.63.07-.62.07-.62 1.01.07 1.55 1.04 1.55 1.04.89 1.53 2.34 1.09 2.91.83.09-.65.35-1.09.64-1.34-2.22-.25-4.56-1.11-4.56-4.94 0-1.09.39-1.99 1.03-2.69-.1-.25-.45-1.27.1-2.65 0 0 .84-.27 2.75 1.02A9.575 9.575 0 0 1 12 6.8c.85.004 1.71.115 2.51.34 1.91-1.29 2.75-1.02 2.75-1.02.55 1.38.2 2.4.1 2.65.64.7 1.03 1.6 1.03 2.69 0 3.84-2.34 4.68-4.57 4.93.36.31.69.91.69 1.84 0 1.33-.01 2.41-.01 2.74 0 .27.15.59.67.49A10.003 10.003 0 0 0 22 12c0-5.52-4.48-10-10-10z"></path>
</svg>
